<svg width="97" height="97" viewBox="0 0 97 97" fill="none" xmlns="http://www.w3.org/2000/svg">
<path d="M48.33 80.5498C66.2792 80.5498 80.83 65.9991 80.83 48.0498C80.83 30.1005 66.2792 15.5498 48.33 15.5498C30.3807 15.5498 15.83 30.1005 15.83 48.0498C15.83 65.9991 30.3807 80.5498 48.33 80.5498Z" stroke="#415566" stroke-dasharray="2 2"/>
<path d="M48.33 71.5498C61.3087 71.5498 71.83 61.0285 71.83 48.0498C71.83 35.0711 61.3087 24.5498 48.33 24.5498C35.3513 24.5498 24.83 35.0711 24.83 48.0498C24.83 61.0285 35.3513 71.5498 48.33 71.5498Z" stroke="#1B2B38"/>
<path d="M27.33 26.0498L35.9903 31.0498V41.0498L27.33 46.0498L18.6697 41.0498V31.0498L27.33 26.0498Z" fill="#111B24" stroke="white" stroke-linejoin="bevel"/>
<path d="M27.33 50.0498L35.9903 55.0498V65.0498L27.33 70.0498L18.6697 65.0498V55.0498L27.33 50.0498Z" fill="#111B24" stroke="white" stroke-linejoin="bevel"/>
<path d="M48.33 61.0498L56.9903 66.0498V76.0498L48.33 81.0498L39.6697 76.0498V66.0498L48.33 61.0498Z" fill="#111B24" stroke="white" stroke-linejoin="bevel"/>
<path d="M69.33 50.0498L77.9903 55.0498V65.0498L69.33 70.0498L60.6697 65.0498V55.0498L69.33 50.0498Z" fill="#111B24" stroke="white" stroke-linejoin="bevel"/>
<path d="M69.33 26.0498L77.9903 31.0498V41.0498L69.33 46.0498L60.6697 41.0498V31.0498L69.33 26.0498Z" fill="#111B24" stroke="white" stroke-linejoin="bevel"/>
<path d="M48.33 15.0498L56.9903 20.0498V30.0498L48.33 35.0498L39.6697 30.0498V20.0498L48.33 15.0498Z" fill="#111B24" stroke="white" stroke-linejoin="bevel"/>
<path d="M60.5863 61.8862L55.3902 64.8862L67.9126 86.5757L73.1087 83.5757L60.5863 61.8862Z" fill="#111B24"/>
<path d="M60.5863 61.8862L55.3902 64.8862L67.9126 86.5757L73.1087 83.5757L60.5863 61.8862Z" fill="#00EAC7" fill-opacity="0.06"/>
<path d="M60.5863 61.8862L55.3902 64.8862L67.9126 86.5757L73.1087 83.5757L60.5863 61.8862Z" stroke="#00EAC7" stroke-width="2" stroke-linejoin="bevel"/>
<path d="M48.33 66.0498C58.2711 66.0498 66.33 57.9909 66.33 48.0498C66.33 38.1087 58.2711 30.0498 48.33 30.0498C38.3889 30.0498 30.33 38.1087 30.33 48.0498C30.33 57.9909 38.3889 66.0498 48.33 66.0498Z" fill="#111B24"/>
<path d="M48.33 66.0498C58.2711 66.0498 66.33 57.9909 66.33 48.0498C66.33 38.1087 58.2711 30.0498 48.33 30.0498C38.3889 30.0498 30.33 38.1087 30.33 48.0498C30.33 57.9909 38.3889 66.0498 48.33 66.0498Z" fill="#00EAC7" fill-opacity="0.06"/>
<path d="M48.33 66.0498C58.2711 66.0498 66.33 57.9909 66.33 48.0498C66.33 38.1087 58.2711 30.0498 48.33 30.0498C38.3889 30.0498 30.33 38.1087 30.33 48.0498C30.33 57.9909 38.3889 66.0498 48.33 66.0498Z" stroke="#00EAC7" stroke-width="2" stroke-linejoin="bevel"/>
<path d="M48.33 62.5498C56.3381 62.5498 62.83 56.0579 62.83 48.0498C62.83 40.0417 56.3381 33.5498 48.33 33.5498C40.3219 33.5498 33.83 40.0417 33.83 48.0498C33.83 56.0579 40.3219 62.5498 48.33 62.5498Z" stroke="#00EAC7" stroke-linejoin="bevel"/>
<path d="M36.83 48.0498C36.83 41.6985 41.9787 36.5498 48.33 36.5498" stroke="#00EAC7" stroke-linejoin="bevel"/>
<path d="M83.83 12.5498H74.83" stroke="#1B2B38" stroke-linecap="square"/>
<path d="M83.83 15.5498H74.83" stroke="#1B2B38" stroke-linecap="square"/>
<path d="M15.33 84.0498C16.9868 84.0498 18.33 82.7067 18.33 81.0498C18.33 79.393 16.9868 78.0498 15.33 78.0498C13.6731 78.0498 12.33 79.393 12.33 81.0498C12.33 82.7067 13.6731 84.0498 15.33 84.0498Z" fill="#1B2B38"/>
</svg>
