<svg width="160" height="48" viewBox="0 0 160 48" fill="none" xmlns="http://www.w3.org/2000/svg">
<g clip-path="url(#clip0_0_373)">
<path d="M31.0987 27.7231C29.0332 27.7231 27.7533 25.8693 27.7533 23.3044C27.7533 20.765 28.8304 18.873 31.086 18.873C32.5686 18.873 33.5444 19.8253 33.722 21.0823H37.1688C36.9912 19.5206 36.2943 18.1493 35.0779 17.2351C34.0894 16.4732 32.7207 16.0034 31.0987 16.0034C26.9422 16.0034 24.243 19.1524 24.243 23.3044C24.243 27.4818 27.0309 30.5419 31.1242 30.5419C33.0882 30.5419 34.5201 29.9959 35.5847 28.9547C36.535 28.0405 37.1688 26.7707 37.2573 25.3868H33.8105C33.6586 26.7454 32.6447 27.7231 31.0987 27.7231Z" fill="white"/>
<path d="M43.6187 19.9775C40.4253 19.9775 38.2837 22.2631 38.2837 25.2723C38.2837 28.2816 40.4253 30.5671 43.6187 30.5671C46.8373 30.5671 48.941 28.2816 48.941 25.2723C48.941 22.2631 46.8373 19.9775 43.6187 19.9775ZM43.606 28.2943C42.2246 28.2943 41.5023 27.0881 41.5023 25.2723C41.5023 23.4566 42.2246 22.225 43.606 22.225C44.9873 22.225 45.7348 23.4566 45.7348 25.2723C45.7224 27.0881 44.9873 28.2943 43.606 28.2943Z" fill="white"/>
<path d="M53.45 18.9148C54.1279 18.2356 54.1279 17.1341 53.45 16.4548C52.7718 15.7755 51.6727 15.7755 50.9948 16.4548C50.3168 17.1341 50.3168 18.2356 50.9948 18.9148C51.6727 19.5942 52.7718 19.5942 53.45 18.9148Z" fill="white"/>
<path d="M49.4607 22.4918H50.7911V30.2499H53.9593V20.2444H49.4607V22.4918Z" fill="white"/>
<path d="M61.7527 19.9521C60.3717 19.9521 59.4084 20.5362 58.6736 21.6155H58.6102V20.2442H55.5563V30.237H58.7369V24.7137C58.7369 23.482 59.4339 22.6059 60.4857 22.6059C61.5248 22.6059 62.0444 23.3296 62.0444 24.3836V30.237H65.225V23.736C65.225 21.5139 63.9325 19.9521 61.7527 19.9521Z" fill="white"/>
<path d="M72.6765 16.2827H66.7334V30.2371H72.4616C74.2102 30.2371 75.6165 29.7928 76.7064 28.9674C78.2653 27.7738 79.127 25.8058 79.127 23.3425C79.127 19.0761 76.5286 16.2827 72.6765 16.2827ZM72.2075 27.3422H70.1803V19.1778H72.246C74.4125 19.1778 75.6417 20.8157 75.6417 23.3552C75.6291 25.9074 74.4636 27.3422 72.2075 27.3422Z" fill="white"/>
<path d="M88.5413 21.2726C87.6803 20.4982 86.5519 20.0283 85.133 20.0283C82.0915 20.0283 80.0132 22.3138 80.0132 25.2977C80.0132 28.3197 82.0411 30.6053 85.336 30.6053C86.603 30.6053 87.6166 30.2751 88.4531 29.6911C89.3274 29.0816 89.9105 28.2308 90.1261 27.3293H87.0335C86.7549 27.9515 86.2103 28.3197 85.3738 28.3197C84.0683 28.3197 83.3333 27.4817 83.1303 26.1358H90.3032C90.3158 24.0915 89.7327 22.3646 88.5413 21.2726ZM83.1436 24.2312C83.3585 23.0376 83.9794 22.2757 85.1834 22.2757C86.2103 22.2757 86.9579 23.0376 87.072 24.2312H83.1436Z" fill="white"/>
<path d="M96.5633 23.9901C95.2956 23.7616 94.1679 23.66 94.1679 22.9616C94.1679 22.3394 94.7762 22.0474 95.549 22.0474C96.424 22.0474 97.0323 22.3267 97.1464 23.2156H100.073C99.9212 21.2474 98.4008 20.0159 95.5749 20.0159C93.2173 20.0159 91.2664 21.1078 91.2664 23.2156C91.2664 25.5646 93.1165 26.0217 94.8525 26.3137C96.1832 26.5422 97.3865 26.6439 97.3865 27.5453C97.3865 28.1929 96.7789 28.5358 95.8283 28.5358C94.7762 28.5358 94.1175 28.0533 93.9908 27.0502H90.9878C91.0886 29.2595 92.9135 30.6054 95.8409 30.6054C98.4512 30.6054 100.378 29.4754 100.378 27.2915C100.39 24.7393 98.3245 24.2822 96.5633 23.9901Z" fill="white"/>
<path d="M107.854 24.0027L111.365 20.2443H107.702L104.737 23.6219V16.2827H101.607V30.2498H104.737V27.1771L105.7 26.1613L108.095 30.2498H111.77L107.854 24.0027Z" fill="white"/>
<path d="M10.2782 24.2312C10.8102 24.2312 11.2414 23.7992 11.2414 23.2662C11.2414 22.7333 10.8102 22.3013 10.2782 22.3013C9.74639 22.3013 9.31519 22.7333 9.31519 23.2662C9.31519 23.7992 9.74639 24.2312 10.2782 24.2312Z" fill="white"/>
<path d="M17.9578 24.2312C18.4897 24.2312 18.9209 23.7992 18.9209 23.2662C18.9209 22.7333 18.4897 22.3013 17.9578 22.3013C17.4259 22.3013 16.9948 22.7333 16.9948 23.2662C16.9948 23.7992 17.4259 24.2312 17.9578 24.2312Z" fill="white"/>
<path d="M17.9578 31.9386C18.4897 31.9386 18.9209 31.5065 18.9209 30.9736C18.9209 30.4407 18.4897 30.0085 17.9578 30.0085C17.4259 30.0085 16.9948 30.4407 16.9948 30.9736C16.9948 31.5065 17.4259 31.9386 17.9578 31.9386Z" fill="white"/>
<path d="M20.7835 15.3813C20.6822 13.9718 19.5543 12.8291 18.1477 12.7275C17.248 12.664 16.4369 13.0068 15.8667 13.5909C15.4359 14.0353 14.8529 14.3019 14.232 14.3019H14.0039C13.3703 14.3019 12.7747 14.0353 12.3312 13.5782C11.8116 13.0449 11.0893 12.7275 10.2909 12.7275C9.4926 12.7275 8.77027 13.0576 8.25073 13.5782C7.80721 14.0353 7.21158 14.3019 6.57798 14.3019H6.36255C5.74163 14.3019 5.14602 14.0607 4.71516 13.6163C4.62646 13.5275 4.53774 13.4386 4.44904 13.3623C3.37193 12.4862 1.78788 12.5116 0.748766 13.4386C-0.505786 14.5432 -0.556475 16.4732 0.609368 17.6414C0.622045 17.654 0.634715 17.6668 0.647385 17.6794C1.10359 18.1111 1.34436 18.7207 1.34436 19.3428V19.5587C1.34436 20.1936 1.07824 20.7903 0.622038 21.2347C0.089808 21.7553 -0.226997 22.4791 -0.226997 23.279C-0.226997 24.0789 0.102482 24.8027 0.622038 25.3233C1.07824 25.7677 1.34436 26.3645 1.34436 26.9993V27.2913C1.34436 27.9135 1.07824 28.4976 0.634715 28.9293C0.0771374 29.4753 -0.265014 30.2498 -0.226997 31.1005C-0.163636 32.5988 1.0529 33.8051 2.53554 33.8559C3.39727 33.8813 4.17026 33.5384 4.71516 32.9671C5.14602 32.5227 5.72893 32.2434 6.34988 32.2434H6.59065C7.21158 32.2434 7.79454 32.51 8.22539 32.9671C8.79561 33.5638 9.6193 33.9067 10.5191 33.8432C11.9257 33.7416 13.0662 32.5988 13.1675 31.1768C13.2816 29.488 11.9637 28.0913 10.3036 28.0913C9.51794 28.0913 8.79561 28.4087 8.27607 28.9293C7.83255 29.3737 7.23692 29.6404 6.61599 29.6404H6.34988C5.72893 29.6404 5.12068 29.3991 4.67715 28.942C4.66447 28.9293 4.66447 28.9293 4.6518 28.9166C4.1956 28.4722 3.92949 27.8754 3.92949 27.2406V26.9866C3.92949 26.3517 4.1956 25.755 4.6518 25.3106C5.18403 24.79 5.50086 24.0662 5.50086 23.2663C5.50086 22.4664 5.17136 21.7426 4.6518 21.222C4.1956 20.7776 3.92949 20.1808 3.92949 19.546V19.3174C3.92949 18.6825 4.1956 18.0858 4.63914 17.6414C4.65181 17.6287 4.65181 17.6287 4.66448 17.616C4.67715 17.6033 4.67715 17.6033 4.68982 17.5906C5.13335 17.1462 5.72893 16.8795 6.36255 16.8795H6.59065C7.22425 16.8795 7.81988 17.1462 8.2634 17.6033C8.78294 18.1365 9.50527 18.454 10.3036 18.454C11.102 18.454 11.8243 18.1239 12.3438 17.6033C12.7874 17.1462 13.383 16.8795 14.0166 16.8795H14.2193C14.8529 16.8795 15.4485 17.1462 15.8921 17.6033C16.4116 18.1365 17.1339 18.454 17.9323 18.454C19.5797 18.4667 20.8976 17.07 20.7835 15.3813Z" fill="white"/>
</g>
<defs>
<clipPath id="clip0_0_373">
<rect width="160" height="48" fill="white"/>
</clipPath>
</defs>
</svg>
