<svg width="112" height="39" viewBox="0 0 112 39" fill="none" xmlns="http://www.w3.org/2000/svg">
<mask id="mask0_0_388" style="mask-type:luminance" maskUnits="userSpaceOnUse" x="-1" y="0" width="113" height="39">
<path d="M111.77 0H-0.22998V38.8439H111.77V0Z" fill="white"/>
</mask>
<g mask="url(#mask0_0_388)">
<path d="M10.863 19.2227C10.863 16.3765 12.6388 13.8708 15.8256 13.8708C17.9664 13.8708 19.4017 14.7953 20.2531 16.7171L18.5259 17.4469C17.9664 16.2062 17.1149 15.6467 15.8256 15.6467C13.9768 15.6467 12.8821 17.1306 12.8821 19.2227C12.8821 21.3148 13.9768 22.7987 15.8256 22.7987C17.0906 22.7987 17.9664 22.2392 18.5259 20.9986L20.2531 21.7283C19.3773 23.6259 17.9421 24.5503 15.8256 24.5503C12.6388 24.5503 10.863 22.0446 10.863 19.2227Z" fill="white"/>
<path d="M22.1505 19.2227C22.1505 16.3765 23.9264 13.8708 27.0889 13.8708C29.2297 13.8708 30.6649 14.7953 31.5163 16.7171L29.7891 17.4469C29.2297 16.2062 28.3782 15.6467 27.0889 15.6467C25.2401 15.6467 24.1454 17.1306 24.1454 19.2227C24.1454 21.3148 25.2401 22.7987 27.0889 22.7987C28.3539 22.7987 29.2297 22.2392 29.7891 20.9986L31.5163 21.7283C30.6649 23.6501 29.2297 24.5746 27.0889 24.5746C23.9508 24.5502 22.1505 22.0446 22.1505 19.2227Z" fill="white"/>
<path d="M33.2192 19.2227C33.2192 16.4738 34.922 13.8708 38.1818 13.8708C41.4659 13.8708 43.0715 16.3279 43.0715 18.9064V19.7336H35.2383C35.3113 21.5094 36.479 22.7987 38.2062 22.7987C39.6414 22.7987 40.6388 22.0689 41.2713 20.9256L42.8769 21.777C41.8552 23.6745 40.2982 24.5503 38.1818 24.5503C34.9707 24.5503 33.2192 22.0446 33.2192 19.2227ZM41.028 18.0551C40.7361 16.5954 39.7874 15.6223 38.1818 15.6223C36.6006 15.6223 35.6276 16.644 35.3356 18.0551H41.028Z" fill="white"/>
<path d="M46.6719 20.4876V11.7786H43.8743V10.0271H48.6666V20.3172C48.6666 22.0444 49.4208 22.7013 50.6371 22.7013C51.8048 22.7013 52.5589 21.9715 52.8265 20.4632L54.6023 20.8038C54.2374 23.3095 52.7535 24.5501 50.6371 24.5501C48.2531 24.5501 46.6719 23.0905 46.6719 20.4876Z" fill="white"/>
<path d="M56.5242 14.0411H58.5189V15.3061C58.9811 14.5763 60.1001 13.8708 61.4625 13.8708C64.552 13.8708 66.2061 16.0602 66.2061 19.2227C66.2061 22.3852 64.552 24.5502 61.4625 24.5502C60.1732 24.5502 59.0541 23.9178 58.5189 23.188V28.5641H56.5242V14.0411ZM64.1141 19.2227C64.1141 17.0576 62.995 15.6467 61.2192 15.6467C59.4677 15.6467 58.3487 17.0576 58.3487 19.2227C58.3487 21.3878 59.4677 22.7987 61.2192 22.7987C62.995 22.7987 64.1141 21.3878 64.1141 19.2227Z" fill="white"/>
<path d="M68.4202 19.2227C68.4202 16.3521 70.3417 13.8708 73.5042 13.8708C76.6668 13.8708 78.5882 16.3279 78.5882 19.2227C78.5882 22.0933 76.6668 24.5503 73.5042 24.5503C70.3417 24.5503 68.4202 22.0933 68.4202 19.2227ZM76.6182 19.2227C76.6182 17.3495 75.4989 15.6467 73.5042 15.6467C71.5096 15.6467 70.4148 17.3495 70.4148 19.2227C70.4148 21.0959 71.5335 22.7987 73.5042 22.7987C75.4989 22.7987 76.6182 21.0959 76.6182 19.2227Z" fill="white"/>
<path d="M80.3155 22.6527H83.77V15.7926H80.7777V14.0411H85.7892V22.6527H89.414V24.4042H80.3401V22.6527H80.3155ZM83.1375 11.2192C83.1375 10.3678 83.7946 9.71094 84.6459 9.71094C85.4973 9.71094 86.1537 10.3678 86.1537 11.2192C86.1537 12.0706 85.4973 12.7032 84.6459 12.7032C83.7946 12.6788 83.1375 12.0463 83.1375 11.2192Z" fill="white"/>
<path d="M91.8949 14.0411H93.8902V15.8656C94.6437 14.7222 95.9333 13.8708 97.3932 13.8708C99.4364 13.8708 100.555 15.1115 100.555 17.1063V24.3799H98.5605V17.6172C98.5605 16.2548 97.8555 15.6467 96.7847 15.6467C95.2277 15.6467 93.8902 17.3495 93.8902 20.2444V24.4043H91.8949V14.0411Z" fill="white"/>
<path d="M109.994 20.4391C109.751 21.9473 108.997 22.6772 107.805 22.6772C106.588 22.6772 105.834 22.0204 105.834 20.2932V15.8171H109.727V14.0412H105.834V11.0977H103.839V20.4878C103.839 23.0907 105.421 24.5503 107.805 24.5503C109.921 24.5503 111.405 23.3097 111.77 20.804L109.994 20.4391Z" fill="white"/>
<path d="M3.24875 25.7666H1.4729V28.5641H3.24875V25.7666Z" fill="white"/>
<path d="M7.26262 25.7666H5.51111V28.5641H7.26262V25.7666Z" fill="white"/>
<path d="M-0.22998 24.015L3.41902 14.041H5.55977L9.18443 24.015V24.3798H-0.22998V24.015ZM2.47028 22.6284H6.50853L4.4894 16.6926L2.47028 22.6284Z" fill="white"/>
</g>
</svg>
