<svg width="112" height="33" viewBox="0 0 112 33" fill="none" xmlns="http://www.w3.org/2000/svg">
<path fill-rule="evenodd" clip-rule="evenodd" d="M19.8298 23.1047L28.1153 0.283203H37.0549L28.8421 23.1047C28.624 23.6862 27.9699 24.1222 27.3158 24.1222H18.5215C19.103 24.0495 19.6117 23.6862 19.8298 23.1047ZM82.8436 24.4856C78.9912 24.4856 76.5928 22.2326 76.5928 18.6712C76.5928 14.9646 78.7732 12.6388 82.3348 12.6388H82.6252C83.0612 12.6388 83.7156 12.6388 84.5148 12.7842V8.278H87.0588V24.1222C87.0588 24.1222 84.6604 24.4856 82.8436 24.4856ZM82.8436 14.6011C80.4452 14.6011 79.2093 15.9094 79.2093 18.5986C79.2093 20.997 80.6628 22.5233 82.9156 22.5233C83.3524 22.5233 83.8604 22.5233 84.5148 22.4506V14.7465C84.4708 14.7417 84.4276 14.7368 84.3844 14.7319L84.2708 14.7192L84.2692 14.719C83.7156 14.6566 83.2236 14.6011 82.8436 14.6011ZM48.4656 24.1222L41.7064 12.2754V24.1222H39.3807V9.15016H42.6512L49.4105 20.8516V9.15016H51.8089V24.1222H48.4656ZM70.0516 24.3402C68.8887 24.3402 67.7259 24.1949 66.2723 23.9042H66.1269V21.7965L66.3449 21.8691C67.5805 22.1598 68.6707 22.3779 69.7609 22.3779C70.6331 22.3779 72.6681 22.2326 72.6681 20.9243C72.6681 19.8341 71.2871 19.5434 70.1243 19.398H70.0516C69.9516 19.3647 69.8516 19.3466 69.7587 19.3298C69.6488 19.3101 69.5489 19.292 69.4702 19.2526C67.7985 18.8166 66.0542 18.1625 66.0542 15.9821C66.0542 13.8017 67.7985 12.5661 70.7784 12.5661C72.232 12.5661 73.2495 12.7114 74.049 12.8568L74.4851 12.9295V14.9646L74.2671 14.8918C74.0939 14.8652 73.9158 14.8362 73.7337 14.8064C72.9226 14.6739 72.0322 14.5285 71.1418 14.5285C69.9789 14.5285 68.5253 14.7465 68.5253 15.8367C68.5253 16.6717 69.5911 16.9071 70.83 17.1808L70.9964 17.2176L71.1719 17.258C73.0227 17.6826 75.1392 18.1681 75.1392 20.6336C75.2119 23.032 73.3222 24.3402 70.0516 24.3402ZM94.1084 24.3402C91.4924 24.3402 89.094 23.9042 89.094 20.5609C89.094 16.9269 92.8004 16.9269 95.0532 16.9269C95.1484 16.9269 95.3964 16.9407 95.6748 16.9564C96.0356 16.9765 96.4476 16.9996 96.6524 16.9996C96.6524 14.9646 96.6524 14.5285 93.6724 14.5285C92.51 14.5285 91.2012 14.7465 90.1116 14.9646L89.8932 15.0372V13.0022H90.0388C91.3468 12.7114 92.6548 12.6388 93.9636 12.6388C96.798 12.6388 99.1964 12.9295 99.1964 16.4182V24.1222H99.0508C97.0156 24.3402 95.4172 24.3402 94.1084 24.3402ZM94.9812 18.7439C92.8732 18.7439 91.4924 19.0346 91.4924 20.6336C91.4924 22.4506 93.1636 22.5959 94.7628 22.5959C95.1036 22.5959 95.618 22.571 96.0452 22.5504C96.3468 22.5358 96.6044 22.5233 96.7252 22.5233V18.8166C96.5028 18.8166 95.9532 18.7894 95.5268 18.7682C95.258 18.7548 95.0372 18.7439 94.9812 18.7439ZM58.9315 24.3402C56.3151 24.3402 53.9167 23.9042 53.9167 20.5609C53.9167 16.9269 57.6233 16.9269 59.8764 16.9269C59.9715 16.9269 60.2191 16.9407 60.498 16.9564C60.8581 16.9765 61.2706 16.9996 61.4754 16.9996C61.4754 14.9646 61.4754 14.5285 58.4955 14.5285C57.3326 14.5285 56.0243 14.7465 54.9342 14.9646L54.7161 15.0372V13.0022H54.8615C56.1697 12.7114 57.4779 12.6388 58.7862 12.6388C61.6207 12.6388 64.0191 12.9295 64.0191 16.4182V24.1222H63.8738C61.8387 24.3402 60.2398 24.3402 58.9315 24.3402ZM59.8037 18.7439C57.696 18.7439 56.3151 19.0346 56.3151 20.6336C56.3151 22.4506 57.9867 22.5959 59.5857 22.5959C59.9262 22.5959 60.4411 22.571 60.8678 22.5504C61.1695 22.5358 61.4276 22.5233 61.548 22.5233V18.8166C61.2716 18.8166 60.703 18.7874 60.2867 18.766L60.2855 18.7659C60.0458 18.7536 59.8568 18.7439 59.8037 18.7439ZM109.153 29.2098V24.2676C108.208 24.413 107.628 24.413 107.264 24.413C106.246 24.413 105.156 24.1949 104.284 23.8315C102.394 23.1047 101.232 21.0697 101.232 18.4532C101.232 17.145 101.522 14.8192 103.63 13.511C104.72 12.9295 105.956 12.6388 107.845 12.6388C108.149 12.6388 108.515 12.6545 108.908 12.6712C109.36 12.6906 109.849 12.7114 110.316 12.7114L111.77 12.7842V28.047C111.697 28.1196 109.153 29.2098 109.153 29.2098ZM107.628 14.6011C105.084 14.6011 103.776 15.9094 103.776 18.4532C103.776 21.7238 105.737 22.4506 107.336 22.4506C107.7 22.4506 108.208 22.4506 109.153 22.3052V14.6738C108.427 14.6011 108.064 14.6011 107.628 14.6011ZM17.7946 23.8315C18.3034 23.8315 18.7395 23.6135 19.0302 23.1774C19.0302 23.1465 19.0565 23.1156 19.0923 23.0734C19.1407 23.0166 19.2064 22.9393 19.2482 22.814L22.3007 14.4558L20.4838 9.58624C20.1931 8.78672 19.2482 8.42336 18.5214 8.78672C18.2307 8.85944 18.0127 9.07744 17.8673 9.29552C17.8673 9.33632 17.8215 9.40008 17.7683 9.47384C17.7269 9.53144 17.6811 9.5952 17.6492 9.65888L14.5967 18.0171L16.4137 22.9594C16.6317 23.4682 17.1405 23.8315 17.7946 23.8315ZM9.58186 8.278H18.4488C17.7947 8.278 17.2132 8.71408 16.9952 9.29552L8.7097 32.117H-0.22998L8.05554 9.29552C8.27362 8.71408 8.9277 8.278 9.58186 8.278Z" fill="white"/>
</svg>
