<svg width="106" height="11" viewBox="0 0 106 11" fill="none" xmlns="http://www.w3.org/2000/svg">
<path d="M72.9909 9.43994H74.9033V5.97013L78.2154 0.765409H76.0467L73.957 4.23522L71.9263 0.785123H69.6986L73.0107 6.02927V9.43994H72.9909ZM61.6746 9.43994H63.5672V3.9395L67.7468 9.43994H69.3634V0.785123H67.4905V6.10813L63.4292 0.785123H61.6746V9.43994ZM55.4644 5.81241L56.6079 3.0129L57.7514 5.81241H55.4644ZM52.0538 9.43994H54.0055L54.7941 7.48817H58.4414L59.23 9.43994H61.2015L57.5345 0.725979H55.7602L52.0538 9.43994ZM48.1897 5.1421V2.53974H49.6486C50.5949 2.53974 51.1863 2.99319 51.1863 3.84092V3.86064C51.1863 4.6098 50.6343 5.16182 49.688 5.16182H48.1897V5.1421ZM46.2773 9.43994H48.1897V6.83758H49.6288C51.5609 6.83758 53.1184 5.81241 53.1184 3.80149C53.1184 2.02716 51.8763 0.804838 49.8063 0.804838H46.297V9.45965L46.2773 9.43994ZM36.4199 9.43994H38.2928V3.80149L40.698 7.46845H40.7572L43.1821 3.80149V9.43994H45.0747V0.785123H43.0244L40.7572 4.45208L38.49 0.785123H36.4396V9.43994H36.4199ZM31.0378 7.82332C29.5 7.82332 28.4157 6.601 28.4157 5.12239V5.08296C28.4157 3.60435 29.4803 2.40174 30.9983 2.40174C32.5361 2.40174 33.6204 3.62406 33.6204 5.10267V5.1421C33.6204 6.62072 32.5558 7.82332 31.0378 7.82332ZM30.9983 9.59766C31.5975 9.61614 32.1944 9.51405 32.7533 9.29744C33.3123 9.08083 33.8221 8.75411 34.2524 8.33669C34.6827 7.91927 35.0247 7.41965 35.2582 6.86749C35.4917 6.31533 35.6119 5.72188 35.6116 5.12239V5.08296C35.6116 2.63832 33.6993 0.647119 31.0378 0.647119C28.3763 0.647119 26.4245 2.65803 26.4245 5.12239C26.4245 7.58674 28.3368 9.57794 30.9983 9.57794M22.8561 9.57794C24.5319 9.57794 25.5176 8.9865 26.4048 8.04018L25.1824 6.81786C24.5121 7.42902 23.901 7.82332 22.9152 7.82332C21.4366 7.82332 20.4115 6.601 20.4115 5.12239V5.08296C20.4115 3.60435 21.4563 2.40174 22.9152 2.40174C23.7827 2.40174 24.453 2.77632 25.1233 3.38748L26.3456 1.98773C25.5373 1.19913 24.5713 0.647119 22.935 0.647119C22.341 0.631034 21.75 0.735498 21.1976 0.954202C20.6452 1.17291 20.1428 1.50131 19.7209 1.91958C19.2989 2.33785 18.9661 2.83731 18.7426 3.38779C18.519 3.93827 18.4094 4.52835 18.4203 5.12239C18.4203 7.62617 20.3129 9.57794 22.8561 9.57794ZM7.93196 8.47391V0.982272H5.98019L3.83128 4.37322L1.68236 0.982272H-0.22998V10.2482L-0.170836 10.9383C0.322035 10.4848 0.893765 10.1102 1.52464 9.79481V3.80149L3.81156 7.19245H3.85099L6.15763 3.76206V8.88792C6.7885 8.90764 7.37995 9.00621 7.93196 9.14422M16.3305 0.982272H14.2801L12.2889 4.19579L10.3175 0.982272H8.2474L11.4018 5.83212V9.36108H13.1761V5.81241L16.3305 0.982272ZM80.0883 0.647119V9.36108H105.836V0.647119H80.0883Z" fill="white"/>
</svg>
