<svg width="112" height="42" viewBox="0 0 112 42" fill="none" xmlns="http://www.w3.org/2000/svg">
<g clip-path="url(#clip0_0_345)">
<path d="M15.9169 10.8462H12.7226V28.1063H15.9169V10.8462Z" fill="white"/>
<path d="M76.6048 15.761C75.4226 15.761 74.3525 16.0224 73.3936 16.5453C72.4348 17.0682 71.6945 17.8262 71.1714 18.8189C70.6483 19.8118 70.3867 20.8386 70.3867 21.8995C70.3867 23.2864 70.6483 24.4629 71.1714 25.4293C71.6945 26.3954 72.4573 27.1286 73.4619 27.6288C74.4658 28.129 75.5209 28.3791 76.628 28.3791C78.4166 28.3791 79.8999 27.7786 81.0779 26.5773C82.2567 25.3763 82.846 23.8624 82.846 22.0359C82.846 20.2248 82.2621 18.7262 81.095 17.5401C79.9279 16.354 78.4316 15.761 76.6048 15.761ZM78.7136 24.5731C78.1489 25.2096 77.4502 25.5279 76.6164 25.5279C75.7825 25.5279 75.0818 25.2096 74.5136 24.5731C73.9448 23.9364 73.6607 23.2675 73.6607 22.0701C73.6607 20.8728 73.9448 20.2036 74.5136 19.5671C75.0818 18.9304 75.7825 18.6121 76.6164 18.6121C77.4502 18.6121 78.1489 18.9304 78.7136 19.5671C79.2784 20.2036 79.5605 20.865 79.5605 22.0473C79.5605 23.2599 79.2784 23.9364 78.7136 24.5731Z" fill="white"/>
<path d="M22.7239 15.761C21.5416 15.761 20.4711 16.0224 19.5125 16.5453C18.5536 17.0682 17.813 17.8262 17.2901 18.8189C16.7672 19.8118 16.5058 20.8386 16.5058 21.8995C16.5058 23.2864 16.7672 24.4629 17.2901 25.4293C17.813 26.3954 18.5764 27.1286 19.5807 27.6288C20.5848 28.129 21.64 28.3791 22.7465 28.3791C24.5351 28.3791 26.0185 27.7786 27.197 26.5773C28.3754 25.3763 28.9647 23.8624 28.9647 22.0359C28.9647 20.2248 28.381 18.7262 27.2141 17.5401C26.0469 16.354 24.5502 15.761 22.7239 15.761ZM24.8325 24.5731C24.2679 25.2096 23.5688 25.5279 22.7352 25.5279C21.9014 25.5279 21.2006 25.2096 20.6322 24.5731C20.0638 23.9364 19.7796 23.2675 19.7796 22.0701C19.7796 20.8728 20.0638 20.2036 20.6322 19.5671C21.2006 18.9304 21.9014 18.6121 22.7352 18.6121C23.5688 18.6121 24.2679 18.9304 24.8325 19.5671C25.397 20.2036 25.6794 20.865 25.6794 22.0473C25.6794 23.2599 25.397 23.9364 24.8325 24.5731Z" fill="white"/>
<path d="M35.5848 18.6967C37.1452 18.6967 37.9988 19.7851 38.3122 20.6757L41.2315 19.8017C40.7697 18.3338 39.5493 15.761 35.437 15.761C31.5834 15.761 29.3239 18.774 29.3239 22.0701C29.3239 25.3661 31.5834 28.3791 35.437 28.3791C39.5493 28.3791 40.7697 25.8063 41.2315 24.3384L38.4113 23.4148C38.098 24.3054 37.1452 25.4435 35.5848 25.4435C34.0243 25.4435 32.573 24.1886 32.573 22.0701C32.573 19.9514 34.0243 18.6967 35.5848 18.6967Z" fill="white"/>
<path d="M102.983 16.0339H98.8019L94.6156 20.583V10.8462H91.3717V28.1063H94.6156V24.8861L95.9657 23.4228L99.1898 28.1063H103.229L98.2235 21.1213L102.983 16.0339Z" fill="white"/>
<path d="M67.6749 16.0339L65.5588 23.797L62.9959 16.0339H61.238H59.5793L57.0165 23.797L54.8011 16.0339H51.3722H49.0642L44.8779 20.583V10.8462H41.634V28.1063H44.8779V24.8861L46.2276 23.4228L49.4518 28.1063H53.4914L48.4858 21.1213L51.8449 17.5308L55.1842 28.1063H58.514L61.238 19.8463L63.9621 28.1063H67.2918L71.1038 16.0339H67.6749Z" fill="white"/>
<path d="M86.6171 17.7505V16.034H83.5016V28.1064H86.7455V24.3778C86.7455 22.3242 86.2729 18.6981 90.7919 19.2754V16.0021C88.235 15.7611 87.1252 16.9397 86.6171 17.7505Z" fill="white"/>
<path d="M107.482 20.6277C106.503 20.43 105.437 20.3749 105.437 19.3303C105.437 18.4177 106.492 18.1648 107.163 18.1648C107.834 18.1648 108.801 18.6486 108.966 19.7701L111.653 19.2039C111.495 17.89 110.341 15.6689 107.075 15.6689C104.876 15.6689 102.407 17.0103 102.407 19.467C102.407 22.09 104.513 22.9696 106.756 23.4424C108.999 23.9152 108.702 24.5964 108.702 24.8388C108.702 25.1951 108.306 25.9044 107.122 25.9044C105.938 25.9044 105.14 25.1797 104.865 24.1021L102.094 24.7069C102.578 26.8069 104.063 28.3792 107.086 28.3792C108.897 28.3792 111.77 27.7745 111.77 24.5859C111.77 21.3973 108.461 20.8254 107.482 20.6277Z" fill="white"/>
<path d="M4.01067 10.8462H-0.22998V15.0868H4.01067V10.8462Z" fill="white"/>
<path d="M4.01067 15.2356H-0.22998V19.4428H4.01067V15.2356Z" fill="white"/>
<path d="M4.01067 19.5918H-0.22998V23.7171H4.01067V19.5918Z" fill="white"/>
<path d="M4.01067 23.8657H-0.22998V28.1064H4.01067V23.8657Z" fill="white"/>
<path d="M8.32559 23.8657H4.15936V28.1064H7.66916C7.89084 28.1064 8.11006 28.0844 8.32559 28.0449V23.8657Z" fill="white"/>
<path d="M8.32559 19.5918H4.15936V23.7171H8.32559V19.5918Z" fill="white"/>
<path d="M4.15936 15.2356V19.4428H8.0852L8.32559 19.3501V15.2356H4.15936Z" fill="white"/>
<path d="M4.15936 15.0868H8.32559V10.9499C8.08431 10.8813 7.85567 10.8462 7.65264 10.8462H4.15936V15.0868Z" fill="white"/>
<path d="M8.47447 15.0869H11.363C11.3632 15.0715 11.3636 15.0563 11.3636 15.0409C11.3636 12.8137 9.77599 11.4321 8.47447 10.9963V15.0869Z" fill="white"/>
<path d="M8.47447 15.2356V19.2898C9.72368 18.755 11.2745 17.5131 11.3589 15.2356H8.47447Z" fill="white"/>
<path d="M8.47447 23.7171H11.8448C11.8448 23.7153 11.8449 23.7137 11.8449 23.7119C11.8449 21.3104 10.0845 19.9733 8.72374 19.5918H8.47447V23.7171Z" fill="white"/>
<path d="M8.47447 23.8657V28.0145C10.2792 27.6074 11.768 25.8797 11.8408 23.8657H8.47447Z" fill="white"/>
</g>
<defs>
<clipPath id="clip0_0_345">
<rect width="112" height="40.9756" fill="white" transform="translate(-0.22998 0.792236)"/>
</clipPath>
</defs>
</svg>
