<svg width="25" height="24" viewBox="0 0 25 24" fill="none" xmlns="http://www.w3.org/2000/svg">
<path d="M20.1035 13.6725H23.9544C24.0445 13.6726 24.1311 13.6376 24.1959 13.575C24.2607 13.5124 24.2986 13.427 24.3016 13.337V10.5599C24.3016 10.4678 24.265 10.3795 24.1999 10.3144C24.1348 10.2493 24.0465 10.2128 23.9544 10.2128H18.5576L14.3063 0.652592C14.2703 0.571307 14.2117 0.502113 14.1374 0.453275C14.0631 0.404437 13.9763 0.378027 13.8874 0.377197H10.4161C10.3268 0.377582 10.2395 0.403785 10.1648 0.452648C10.09 0.501515 10.031 0.570951 9.99489 0.652592L5.74592 10.2012H0.3491C0.302523 10.2012 0.256417 10.2105 0.213528 10.2287C0.170639 10.2468 0.131845 10.2734 0.0994542 10.3069C0.0670633 10.3404 0.041739 10.38 0.0249903 10.4235C0.00824149 10.467 0.000410372 10.5133 0.00196294 10.5599V13.337C0.00196294 13.4291 0.038536 13.5173 0.103637 13.5824C0.168738 13.6475 0.257033 13.6841 0.3491 13.6841H4.20001L0.0343623 23.0429C0.0133751 23.0951 0.00535145 23.1515 0.0109792 23.2074C0.0166068 23.2633 0.0357175 23.317 0.0666716 23.3639C0.0976255 23.4108 0.139497 23.4494 0.188691 23.4766C0.237884 23.5037 0.29293 23.5185 0.3491 23.5197H3.44788C3.53756 23.5197 3.62534 23.4937 3.70051 23.4448C3.77569 23.3959 3.83505 23.3263 3.87138 23.2443L12.1518 4.64697L20.4321 23.2443C20.4685 23.3263 20.5278 23.3959 20.603 23.4448C20.6782 23.4937 20.766 23.5197 20.8556 23.5197H23.9544C24.0123 23.5197 24.0692 23.5052 24.12 23.4776C24.1709 23.45 24.214 23.4101 24.2455 23.3616C24.277 23.313 24.2959 23.2575 24.3004 23.1998C24.3049 23.1421 24.295 23.0842 24.2715 23.0314L20.1035 13.6725Z" fill="white"/>
</svg>
